<?xml version="1.0" standalone="no"?>
<!DOCTYPE svg PUBLIC "-//W3C//DTD SVG 20010904//EN"
 "http://www.w3.org/TR/2001/REC-SVG-20010904/DTD/svg10.dtd">
<svg version="1.0" xmlns="http://www.w3.org/2000/svg"
 width="512.000000pt" height="512.000000pt" viewBox="0 0 512.000000 512.000000"
 preserveAspectRatio="xMidYMid meet">
<metadata>
Created by potrace 1.11, written by Peter Selinger 2001-2013
</metadata>
<g transform="translate(0.000000,512.000000) scale(0.100000,-0.100000)"
fill="#000000" stroke="none">
<path d="M560 5110 c-149 -20 -254 -73 -365 -185 -89 -88 -140 -174 -172 -285
-17 -62 -18 -156 -18 -2080 0 -1924 1 -2018 18 -2080 61 -216 241 -396 457
-457 62 -17 156 -18 2080 -18 1924 0 2018 1 2080 18 216 61 396 241 457 457
17 62 18 156 18 2080 0 1924 -1 2018 -18 2080 -61 214 -236 391 -452 456 -57
18 -161 19 -2045 20 -1092 1 -2010 -2 -2040 -6z m2250 -931 c176 -24 402 -99
565 -189 166 -91 329 -231 437 -374 58 -77 158 -263 158 -296 0 -11 -49 -32
-173 -73 -95 -31 -175 -57 -179 -57 -3 0 -22 34 -42 77 -96 201 -260 355 -500
469 -139 66 -261 94 -432 101 -245 10 -436 -27 -630 -122 -238 -116 -410 -286
-533 -528 -90 -177 -129 -336 -138 -567 -10 -262 31 -461 137 -675 170 -342
450 -558 830 -641 120 -26 419 -27 538 -1 390 86 710 341 844 675 43 105 81
274 76 336 l-3 41 -752 3 -753 2 0 180 0 180 961 0 962 0 -6 -197 c-3 -114
-12 -234 -21 -281 -101 -539 -393 -945 -833 -1158 -372 -180 -871 -210 -1296
-78 -117 37 -327 141 -432 215 -49 35 -135 109 -190 164 -256 256 -410 580
-456 959 -17 139 -6 441 20 571 118 578 504 1013 1058 1194 247 81 519 105
783 70z"/>
</g>
</svg>
