<svg xmlns="http://www.w3.org/2000/svg" xmlns:xlink="http://www.w3.org/1999/xlink" width="1600" height="1200"><defs><linearGradient id="prefix__b"><stop offset="0" stop-color="#fff"/><stop offset="1" stop-color="#fff" stop-opacity=".471"/></linearGradient><linearGradient id="prefix__a"><stop offset="0" stop-color="#fff"/><stop offset="1" stop-color="#fff" stop-opacity=".471"/></linearGradient><radialGradient xlink:href="#prefix__a" id="prefix__c" cx="796.317" cy="-130.175" fx="796.317" fy="-130.175" r="516.613" gradientTransform="matrix(0 .33569 -1.61439 0 535.988 118.22)" gradientUnits="userSpaceOnUse"/><radialGradient xlink:href="#prefix__b" id="prefix__d" gradientUnits="userSpaceOnUse" gradientTransform="matrix(-1.52546 0 0 -.22851 2018.964 741.74)" cx="799.445" cy="385.765" fx="799.445" fy="385.765" r="485.172"/></defs><title>Guillaume de Matos</title><g aria-label="Guillaume de Matos" style="line-height:1.25" font-weight="400" font-size="215.187" font-family="Object Sans" letter-spacing="0" word-spacing="0" stroke-width="5.38" text-anchor="middle" fill="#fff"><g fill="url(#prefix__c)" transform="translate(357.255 275.844) scale(.55343)"><path style="-inkscape-font-specification:'Object Sans';text-align:center" d="M365.158 546.3q-23.455 0-42.177-10.328-18.506-10.545-29.05-29.05-10.544-18.722-10.544-41.962 0-23.24 10.544-41.746 10.544-18.506 29.05-28.835 18.722-10.545 42.177-10.545 15.709 0 29.911 5.81 14.417 5.595 24.746 15.71 10.33 9.898 14.418 22.379l-17.86 6.025q-4.95-14.203-19.367-23.456-14.203-9.253-31.848-9.253-18.076 0-32.278 8.178-13.987 8.177-21.95 22.81-7.961 14.417-7.961 32.923 0 18.29 7.962 32.923 7.962 14.633 22.164 23.025 14.202 8.178 32.063 8.178 16.139 0 29.48-7.102 13.557-7.1 21.52-19.366 7.961-12.481 8.392-27.544l-75.316-.216v-17.43h95.113q.215 2.367.215 6.886 0 23.67-10.114 42.392-9.898 18.721-27.974 29.266-18.076 10.329-41.316 10.329zM569.06 540.92H551.2v-14.847h-2.151q-5.595 8.823-14.633 13.772-8.823 4.95-19.367 4.95-13.557 0-23.886-6.026-10.329-6.24-15.924-17-5.38-10.974-5.38-24.746v-64.771h17.861v64.77q0 14.203 7.747 23.026 7.962 8.607 21.734 8.607 9.038 0 16.784-4.304 7.962-4.303 12.481-11.835 4.734-7.747 4.734-17v-63.264h17.86zM613.06 411.594q-5.595 0-9.253-3.659-3.658-3.658-3.658-9.253 0-5.38 3.658-8.822 3.658-3.658 9.253-3.658 5.595 0 9.038 3.443 3.658 3.443 3.658 9.037 0 5.595-3.658 9.253-3.443 3.659-9.038 3.659zm-9.038 20.658h17.86V540.92h-17.86zM656.938 382.759h17.86V540.92h-17.86zM707.793 382.759h17.86V540.92h-17.86zM788.989 544.364q-17.646 0-28.405-8.392-10.544-8.608-10.544-22.595 0-14.633 12.48-24.531 12.481-9.899 36.152-12.481l30.126-3.658v-4.304q0-10.975-7.531-17.43-7.532-6.671-20.874-6.671-12.48 0-19.797 5.81-7.316 5.595-7.1 15.709h-18.077q0-17.215 12.266-27.33 12.266-10.328 32.924-10.328 21.088 0 33.569 11.19 12.48 10.974 12.48 29.48v72.088h-17.86v-15.924h-1.937q-12.05 19.367-37.872 19.367zm2.582-14.848q10.974 0 19.367-4.089 8.392-4.088 13.126-11.405 4.734-7.316 4.734-16.354v-9.683l-30.126 3.443q-15.924 1.937-23.455 7.747-7.317 5.594-7.317 13.772 0 7.746 6.24 12.265 6.456 4.304 17.43 4.304zM974.638 540.92h-17.86v-14.847h-2.153q-5.595 8.823-14.632 13.772-8.823 4.95-19.367 4.95-13.557 0-23.886-6.026-10.329-6.24-15.924-17-5.38-10.974-5.38-24.746v-64.771h17.861v64.77q0 14.203 7.747 23.026 7.962 8.607 21.734 8.607 9.037 0 16.784-4.304 7.962-4.303 12.481-11.835 4.734-7.747 4.734-17v-63.264h17.86zM1007.877 432.252h17.215v14.417h2.152q4.734-8.607 12.911-13.557 8.392-5.164 18.722-5.164 11.404 0 21.088 5.81 9.683 5.81 14.417 15.278h1.937q5.81-9.899 15.063-15.278 9.253-5.595 21.304-5.595 12.696 0 22.594 6.24 10.114 6.026 15.709 17 5.595 10.76 5.595 24.747v64.77h-17.86v-64.986q0-13.772-7.963-22.81-7.962-9.037-20.227-9.037-13.127 0-21.519 9.038-8.177 8.822-8.177 22.81v64.986h-17.86v-64.987q0-14.417-7.747-23.025-7.532-8.822-20.228-8.822-13.126 0-21.303 8.822-7.962 8.608-7.962 23.025v64.987h-17.86zM1260.45 545.225q-16.785 0-30.127-7.747-13.341-7.747-20.873-21.304-7.532-13.772-7.532-30.987 0-16.354 7.317-29.265 7.531-13.126 20.658-20.443 13.126-7.531 29.696-7.531 16.354 0 29.265 7.531 13.126 7.317 20.443 20.443 7.316 12.911 7.316 29.48 0 4.735-.215 7.102h-96.189q1.937 16.57 12.912 26.683 11.19 9.899 27.759 9.899 12.05 0 21.949-5.595 10.114-5.81 15.278-15.494l14.848 7.532q-6.67 13.987-20.658 21.949-13.772 7.747-31.848 7.747zm37.442-68.43q-2.367-14.848-13.127-23.67-10.544-9.038-26.037-9.038-15.063 0-25.607 9.038-10.33 9.037-12.696 23.67z"/></g><g fill="url(#prefix__d)" transform="translate(357.255 275.844) scale(.55343)"><path style="-inkscape-font-specification:'Object Sans';text-align:center" d="M370.652 788.682q-15.709 0-28.62-7.532-12.911-7.746-20.443-21.088-7.316-13.341-7.316-30.126 0-16.785 7.316-30.126 7.317-13.342 20.228-20.873 12.911-7.532 28.62-7.532 13.126 0 23.455 5.38 10.33 5.164 16.354 15.063h2.152v-65.632h17.86v158.162h-17.86v-16.784h-2.152q-6.025 10.113-16.354 15.708-10.114 5.38-23.24 5.38zm1.937-16.139q11.405 0 20.442-5.595 9.253-5.595 14.418-15.278 5.38-9.899 5.38-21.734 0-11.835-5.165-21.519-5.164-9.683-14.417-15.278-9.253-5.595-20.658-5.595-11.62 0-20.873 5.595-9.038 5.595-14.418 15.278-5.164 9.684-5.164 21.519 0 12.05 5.164 21.734 5.38 9.683 14.633 15.278 9.253 5.595 20.658 5.595zM516.122 788.682q-16.785 0-30.127-7.747-13.341-7.746-20.873-21.303-7.531-13.772-7.531-30.987 0-16.354 7.316-29.266 7.532-13.126 20.658-20.442 13.127-7.532 29.696-7.532 16.354 0 29.265 7.532 13.127 7.316 20.443 20.442 7.316 12.912 7.316 29.481 0 4.734-.215 7.101h-96.188q1.936 16.57 12.91 26.683 11.19 9.899 27.76 9.899 12.05 0 21.949-5.595 10.114-5.81 15.278-15.493l14.848 7.531q-6.67 13.987-20.658 21.95-13.772 7.746-31.847 7.746zm37.442-68.43q-2.367-14.847-13.126-23.67-10.544-9.038-26.038-9.038-15.063 0-25.607 9.038-10.33 9.038-12.696 23.67zM657.234 632.672h30.987l50.138 124.378h1.937l50.354-124.378h30.771v151.706H801.84v-126.96h-1.936l-51.215 126.96h-18.721l-51-126.745h-1.936v126.745h-19.797zM889.017 787.821q-17.646 0-28.405-8.392-10.544-8.607-10.544-22.595 0-14.632 12.48-24.53 12.482-9.9 36.152-12.482l30.126-3.658v-4.304q0-10.974-7.531-17.43-7.532-6.67-20.873-6.67-12.481 0-19.797 5.81-7.317 5.594-7.102 15.708h-18.075q0-17.215 12.265-27.329 12.266-10.329 32.924-10.329 21.088 0 33.569 11.19 12.48 10.975 12.48 29.48v72.088h-17.86v-15.924h-1.936q-12.05 19.367-37.873 19.367zm2.582-14.848q10.975 0 19.367-4.088 8.392-4.089 13.126-11.405 4.734-7.316 4.734-16.354v-9.684l-30.126 3.443q-15.924 1.937-23.455 7.747-7.317 5.595-7.317 13.772 0 7.747 6.24 12.266 6.457 4.303 17.431 4.303zM1016.996 788.467q-13.557 0-21.734-8.823-8.177-8.822-8.177-23.24v-66.493h-17.646V675.71h17.646l4.088-35.075h13.987l-.215 35.075h27.975v14.202h-27.975v65.847q0 7.747 4.52 12.696 4.518 4.95 12.265 4.95 2.582 0 6.24-.646 3.659-.645 6.671-1.506v14.417q-8.392 2.798-17.645 2.798zM1109.977 788.682q-17 0-30.342-7.532-13.126-7.531-20.658-20.873-7.316-13.341-7.316-30.341t7.316-30.126q7.532-13.342 20.658-20.873 13.342-7.532 30.342-7.532 16.784 0 30.126 7.532 13.341 7.531 20.658 20.873 7.531 13.341 7.531 30.126 0 17-7.531 30.341-7.317 13.342-20.658 20.873-13.342 7.532-30.126 7.532zm0-16.139q11.62 0 20.873-5.38 9.253-5.595 14.417-15.278 5.165-9.683 5.165-21.949 0-12.05-5.165-21.734-5.164-9.683-14.417-15.063-9.253-5.595-20.873-5.595-11.62 0-20.874 5.595-9.253 5.38-14.417 15.063-5.164 9.684-5.164 21.734 0 12.266 5.164 21.95 5.165 9.682 14.418 15.277 9.253 5.38 20.873 5.38zM1240.289 788.682q-23.455 0-36.367-10.76-12.91-10.974-12.91-30.34h17.214q.215 11.835 8.823 18.936 8.822 7.1 23.886 7.1 12.265 0 19.582-4.733 7.316-4.95 7.316-13.557 0-6.67-4.089-9.899-4.088-3.443-9.683-4.734-5.595-1.29-17.43-2.797-19.582-2.367-31.633-9.038-12.05-6.886-12.05-23.455 0-15.709 11.835-24.747 12.05-9.253 31.848-9.253 20.443 0 32.923 10.114 12.696 9.899 12.696 26.683h-17.43q-.215-9.898-7.962-15.708-7.746-6.026-20.442-6.026-11.836 0-19.152 4.95-7.316 4.949-7.316 13.341 0 6.24 3.873 9.684 4.089 3.227 9.683 4.518 5.81 1.076 17.215 2.368 12.696 1.506 21.95 4.734 9.468 3.012 15.708 10.113 6.24 6.886 6.24 18.937 0 15.924-11.835 24.746-11.62 8.823-32.493 8.823z"/></g></g></svg>