<svg xmlns="http://www.w3.org/2000/svg" xmlns:xlink="http://www.w3.org/1999/xlink" width="1600" height="1200"><defs><linearGradient id="prefix__c"><stop offset="0" stop-color="#fff"/><stop offset="1" stop-color="#fff" stop-opacity=".471"/></linearGradient><linearGradient id="prefix__b"><stop offset="0" stop-color="#fff"/><stop offset="1" stop-color="#fff" stop-opacity=".471"/></linearGradient><linearGradient id="prefix__a"><stop offset="0" stop-color="#fff"/><stop offset="1" stop-color="#fff" stop-opacity=".471"/></linearGradient><radialGradient xlink:href="#prefix__c" id="prefix__d" cx="800" cy="360.63" fx="800" fy="360.63" r="350.38" gradientTransform="matrix(-1 0 0 -.603 1600 661.89)" gradientUnits="userSpaceOnUse"/><radialGradient xlink:href="#prefix__c" id="prefix__e" cx="800" cy="711.132" fx="800" fy="711.132" r="158.681" gradientTransform="matrix(-1 0 0 -.19618 1600 919.582)" gradientUnits="userSpaceOnUse"/></defs><title>Guillaume de Matos</title><g font-family="Object Sans" letter-spacing="0" word-spacing="0"><g style="line-height:1.25;-inkscape-font-specification:'Object Sans Light'" aria-label="404" font-weight="300" font-size="387.247" fill="url(#prefix__d)" stroke-width="2.017"><path style="-inkscape-font-specification:'Object Sans Light'" d="M584.77 613.934H449.62v-15.877l120.046-190.138h39.5v183.555h34.465v22.46h-34.465v66.22h-24.397zm0-22.46V431.54h-3.099L480.6 591.474zM803.485 689.835q-34.078 0-59.636-18.2-25.558-18.202-39.5-51.118-13.94-33.303-13.94-76.287 0-43.76 13.94-76.675 13.942-32.916 39.5-51.117 25.558-18.2 59.636-18.2t59.636 18.2q25.559 18.2 39.5 51.504 13.94 32.916 13.94 76.288 0 43.371-13.94 76.287-13.941 32.916-39.5 51.117-25.558 18.2-59.636 18.2zm0-22.073q26.72 0 46.857-15.49t30.98-43.372q10.843-28.27 10.843-64.67 0-36.789-10.843-64.67-10.843-28.27-30.98-43.76-20.137-15.49-46.857-15.49-27.107 0-47.244 15.49-19.75 15.103-30.592 43.372-10.843 27.882-10.843 65.058 0 36.4 10.842 64.67 10.843 27.882 30.98 43.372 20.137 15.49 46.857 15.49zM1091.519 613.934h-135.15v-15.877l120.047-190.138h39.5v183.555h34.464v22.46h-34.465v66.22h-24.396zm0-22.46V431.54h-3.098L987.349 591.474z"/></g><g style="line-height:1.25" aria-label="Click anywhere to go home" font-weight="400" font-size="23.81" fill="url(#prefix__e)" stroke-width=".595" font-style="italic"><path style="-inkscape-font-specification:'Object Sans Italic'" d="M648.724 796.405q-2.214 0-3.905-.904-1.666-.93-2.595-2.572-.905-1.667-.905-3.81 0-.928.167-1.833.452-2.548 1.905-4.548 1.476-2.024 3.62-3.167 2.142-1.142 4.594-1.142 1.905 0 3.453.81 1.571.785 2.5 2.213.952 1.405 1.048 3.143l-2.096.143q-.095-1.262-.762-2.262-.666-1.024-1.785-1.571-1.096-.572-2.405-.572-1.905 0-3.596.929-1.69.929-2.857 2.595-1.143 1.643-1.5 3.69-.119.62-.119 1.453 0 1.62.643 2.881.643 1.238 1.833 1.929 1.215.69 2.81.69 1.357 0 2.714-.571 1.358-.571 2.405-1.571 1.072-1 1.643-2.239l2.024.548q-.714 1.643-2.095 2.953-1.381 1.31-3.143 2.047-1.762.738-3.596.738zM662.79 778.31h1.976l-3.095 17.5h-1.976zM669.155 781.5q-.595 0-.952-.333-.334-.334-.334-.881 0-.715.429-1.143.429-.453 1.119-.453.595 0 .952.358.358.357.358.904 0 .667-.477 1.12-.452.428-1.095.428zm-1.5 2.286h1.976l-2.119 12.024h-1.976zM677.058 796.286q-1.595 0-2.81-.666-1.214-.667-1.88-1.858-.644-1.19-.644-2.738 0-.762.12-1.357.309-1.833 1.357-3.262 1.047-1.452 2.595-2.262 1.548-.833 3.31-.833 1.476 0 2.666.595 1.19.571 1.834 1.619.666 1.024.666 2.286l-1.904.119q-.096-1.286-1.024-2.048-.929-.786-2.286-.786-1.238 0-2.357.62-1.12.619-1.905 1.738-.786 1.095-1.048 2.476-.071.5-.071.952 0 1.643.928 2.643.953.976 2.5.976 1.477 0 2.739-.81 1.285-.832 1.857-2.118l1.905.405q-.476 1.262-1.5 2.238-1 .976-2.334 1.524-1.31.547-2.714.547zM689.019 778.31h1.976l-1.857 10.619h.214l6.048-5.143h2.666l-6.976 5.762 4.929 6.262h-2.596l-4.262-5.595h-.238l-1 5.595h-1.976zM709.493 796.286q-1.571 0-2.762-.666-1.19-.667-1.857-1.858-.643-1.214-.643-2.762 0-.571.12-1.333.309-1.833 1.332-3.262 1.048-1.452 2.572-2.262 1.524-.833 3.286-.833 2.88 0 4.167 2.5l.262-.072.357-1.952h1.976l-2.143 12.024h-1.976l.357-1.976-.19.071q-2.048 2.381-4.858 2.381zm.31-1.786q1.31 0 2.476-.619 1.167-.642 1.952-1.738.786-1.095 1.024-2.476.095-.452.095-.976 0-1.62-1-2.596-.976-1-2.619-1-1.31 0-2.476.62-1.167.619-1.952 1.738-.786 1.095-1.024 2.476-.095.452-.095.952 0 1.62.976 2.62 1 1 2.643 1zM721.968 783.786h1.976l-.286 1.643.215-.072q.785-1 1.833-1.5 1.048-.524 2.19-.524 2 0 3.144 1.167 1.143 1.167 1.143 3.048 0 .595-.096 1.143l-1.262 7.12h-1.976l1.286-7.24q.071-.428.071-.833 0-1.214-.69-1.904-.667-.715-1.929-.715-1.024 0-2.024.5-.976.5-1.666 1.357-.667.858-.834 1.881l-1.238 6.953h-1.976zM734.552 801.144q-1.024 0-1.905-.405l.214-1.69q.739.333 1.453.333.738 0 1.31-.381.57-.381.976-.953.404-.571.976-1.524l.476-.785-3.214-11.953h2.024l2.452 9.405h.214l5.215-9.405h2.143l-6.93 12.286q-1.023 1.786-1.69 2.762-.666.976-1.595 1.643-.928.667-2.119.667zM747.724 783.786h1.929l1.571 10.072h.214l4.477-10.072h2.524l.976 10.095h.214l5.072-10.095h1.976l-6.143 12.024H757.7l-.785-9.738h-.238l-4.239 9.738h-2.81zM769.983 778.31h1.976l-1.214 7 .19-.048q.81-.952 1.834-1.452 1.047-.5 2.214-.5 2 0 3.143 1.166 1.143 1.167 1.143 3.072 0 .595-.095 1.095l-1.286 7.167h-1.976l1.31-7.286q.07-.428.07-.81 0-1.214-.69-1.904-.667-.715-1.929-.715-1.047 0-2.023.5-.977.5-1.667 1.358-.69.857-.857 1.904l-1.238 6.953h-1.977zM787.209 796.286q-1.667 0-2.929-.666-1.238-.69-1.928-1.93-.667-1.237-.667-2.832 0-.572.119-1.358.31-1.785 1.357-3.19 1.048-1.405 2.62-2.19 1.57-.81 3.38-.81 1.62 0 2.834.666 1.238.643 1.905 1.834.666 1.166.666 2.714 0 .524-.119 1.286-.047.405-.143.714h-10.667q-.095 1.834.905 2.905 1 1.071 2.786 1.071 1.38 0 2.62-.642 1.237-.667 2-1.762l1.547.952q-1 1.548-2.667 2.405-1.667.833-3.62.833zm5.357-7.643q.048-1.619-.928-2.571-.977-.977-2.643-.977-1.69 0-3.072 1.024-1.38 1.024-1.929 2.667zM798.56 783.786h1.93l-.31 1.619.214-.048q.548-.81 1.5-1.31.976-.5 1.953-.5.428 0 .81.12.404.095.642.238l-.19 1.762q-.762-.333-1.643-.333-1.405 0-2.5 1.142-1.096 1.143-1.405 2.93l-1.143 6.404h-1.976zM811.252 796.286q-1.667 0-2.929-.666-1.238-.69-1.929-1.93-.666-1.237-.666-2.832 0-.572.119-1.358.31-1.785 1.357-3.19 1.048-1.405 2.62-2.19 1.57-.81 3.38-.81 1.62 0 2.834.666 1.238.643 1.904 1.834.667 1.166.667 2.714 0 .524-.119 1.286-.048.405-.143.714H807.68q-.095 1.834.905 2.905 1 1.071 2.786 1.071 1.38 0 2.619-.642 1.238-.667 2-1.762l1.548.952q-1 1.548-2.667 2.405-1.667.833-3.62.833zm5.357-7.643q.048-1.619-.929-2.571-.976-.977-2.643-.977-1.69 0-3.071 1.024-1.381 1.024-1.929 2.667zM830.842 796.262q-1.357 0-2.12-.761-.761-.762-.761-2.072 0-.405.071-.786l1.31-7.286h-1.952l.261-1.571h1.953l1.119-3.881h1.571l-.714 3.88h3.072l-.262 1.572h-3.072l-1.31 7.334q-.047.333-.047.5 0 .643.381 1.024.381.38 1.048.38.762 0 1.547-.237l-.19 1.619q-.405.143-.953.214-.523.071-.952.071zM841.083 796.286q-1.667 0-2.905-.666-1.238-.667-1.929-1.858-.667-1.19-.667-2.762 0-.547.12-1.333.333-1.857 1.38-3.286 1.072-1.452 2.644-2.262 1.571-.81 3.428-.81 1.667 0 2.905.667 1.262.667 1.929 1.881.69 1.19.69 2.762 0 .548-.119 1.31-.333 1.857-1.405 3.31-1.047 1.428-2.643 2.238-1.571.81-3.428.81zm.071-1.786q1.31 0 2.476-.619 1.167-.642 1.953-1.738.786-1.095 1.024-2.476.095-.452.095-.976 0-1.62-1-2.596-.976-1-2.62-1-1.309 0-2.476.62-1.166.619-1.952 1.738-.786 1.095-1.024 2.476-.095.452-.095.976 0 1.62.976 2.62 1 .975 2.643.975zM861.407 801.763q-2.358 0-3.834-1.096-1.476-1.095-1.738-2.976l2.024-.595q.238 1.405 1.19 2.143.953.738 2.5.738 2.024 0 3.453-1.214 1.429-1.215 1.81-3.239l.261-1.547-.214.047q-2.024 2.096-4.667 2.096-1.595 0-2.81-.643-1.214-.667-1.88-1.834-.643-1.166-.643-2.69 0-.524.119-1.286.31-1.81 1.357-3.238 1.048-1.453 2.572-2.262 1.523-.834 3.285-.834 1.453 0 2.477.596 1.024.571 1.643 1.619l.285-.048.31-1.714h1.952l-2.095 11.881q-.333 1.857-1.357 3.215-1 1.38-2.572 2.119-1.547.762-3.428.762zm1.047-7.382q1.31 0 2.477-.595 1.166-.619 1.952-1.69.786-1.096 1-2.429.095-.452.095-.976 0-1.62-1-2.596-.976-1-2.619-1-1.31 0-2.476.62-1.167.619-1.953 1.738-.785 1.095-1.023 2.476-.096.619-.096.929 0 1.571 1 2.547 1 .976 2.643.976zM878.193 796.286q-1.666 0-2.905-.666-1.238-.667-1.928-1.858-.667-1.19-.667-2.762 0-.547.12-1.333.332-1.857 1.38-3.286 1.072-1.452 2.643-2.262 1.572-.81 3.429-.81 1.667 0 2.905.667 1.262.667 1.928 1.881.69 1.19.69 2.762 0 .548-.118 1.31-.334 1.857-1.405 3.31-1.048 1.428-2.643 2.238-1.572.81-3.429.81zm.072-1.786q1.31 0 2.476-.619 1.167-.642 1.952-1.738.786-1.095 1.024-2.476.096-.452.096-.976 0-1.62-1-2.596-.977-1-2.62-1-1.31 0-2.476.62-1.167.619-1.952 1.738-.786 1.095-1.024 2.476-.095.452-.095.976 0 1.62.976 2.62 1 .975 2.643.975zM896.708 778.31h1.976l-1.214 7 .19-.048q.81-.952 1.833-1.452 1.048-.5 2.215-.5 2 0 3.143 1.166 1.143 1.167 1.143 3.072 0 .595-.096 1.095l-1.285 7.167h-1.977l1.31-7.286q.071-.428.071-.81 0-1.214-.69-1.904-.667-.715-1.929-.715-1.047 0-2.024.5-.976.5-1.666 1.358-.69.857-.857 1.904l-1.239 6.953h-1.976zM913.862 796.286q-1.666 0-2.905-.666-1.238-.667-1.928-1.858-.667-1.19-.667-2.762 0-.547.12-1.333.332-1.857 1.38-3.286 1.072-1.452 2.643-2.262 1.572-.81 3.429-.81 1.666 0 2.905.667 1.262.667 1.928 1.881.69 1.19.69 2.762 0 .548-.118 1.31-.334 1.857-1.405 3.31-1.048 1.428-2.643 2.238-1.572.81-3.429.81zm.072-1.786q1.31 0 2.476-.619 1.167-.642 1.952-1.738.786-1.095 1.024-2.476.095-.452.095-.976 0-1.62-1-2.596-.976-1-2.619-1-1.31 0-2.476.62-1.167.619-1.952 1.738-.786 1.095-1.024 2.476-.096.452-.096.976 0 1.62.977 2.62 1 .975 2.643.975zM925.472 783.786h1.904l-.285 1.595.19-.071q.69-.953 1.667-1.477 1-.523 2.143-.523 1.262 0 2.238.666.976.667 1.31 1.738l.262-.142q.785-1.072 1.904-1.643 1.12-.596 2.429-.596 1.881 0 3 1.191 1.12 1.167 1.12 3.048 0 .595-.096 1.143l-1.262 7.095h-1.976l1.285-7.262q.072-.429.072-.786 0-1.214-.667-1.928-.666-.739-1.786-.739-1.476 0-2.642 1.024-1.143 1.024-1.405 2.572l-1.262 7.12h-1.976l1.285-7.263q.072-.476.072-.857 0-1.215-.643-1.905-.62-.69-1.762-.69-1.524 0-2.643 1-1.12 1-1.381 2.595l-1.262 7.12h-1.976zM951.323 796.286q-1.666 0-2.928-.666-1.239-.69-1.929-1.93-.667-1.237-.667-2.832 0-.572.12-1.358.309-1.785 1.357-3.19 1.047-1.405 2.619-2.19 1.571-.81 3.38-.81 1.62 0 2.834.666 1.238.643 1.905 1.834.667 1.166.667 2.714 0 .524-.12 1.286-.047.405-.142.714h-10.667q-.095 1.834.905 2.905 1 1.071 2.785 1.071 1.381 0 2.62-.642 1.238-.667 2-1.762l1.547.952q-1 1.548-2.667 2.405-1.666.833-3.619.833zm5.358-7.643q.047-1.619-.929-2.571-.976-.977-2.643-.977-1.69 0-3.071 1.024-1.381 1.024-1.93 2.667z"/></g></g></svg>