<svg xmlns="http://www.w3.org/2000/svg" xmlns:xlink="http://www.w3.org/1999/xlink" width="1600" height="1200"><defs><linearGradient id="prefix__c"><stop offset="0" stop-color="#fff"/><stop offset="1" stop-color="#fff" stop-opacity=".471"/></linearGradient><linearGradient id="prefix__b"><stop offset="0" stop-color="#fff"/><stop offset="1" stop-color="#fff" stop-opacity=".471"/></linearGradient><linearGradient id="prefix__a"><stop offset="0" stop-color="#fff"/><stop offset="1" stop-color="#fff" stop-opacity=".471"/></linearGradient><radialGradient xlink:href="#prefix__c" id="prefix__d" cx="800" cy="360.63" fx="800" fy="360.63" r="350.38" gradientTransform="matrix(-.6889 0 0 -.4154 1351.122 537.392)" gradientUnits="userSpaceOnUse"/><radialGradient xlink:href="#prefix__c" id="prefix__e" cx="800" cy="711.132" fx="800" fy="711.132" r="158.681" gradientTransform="matrix(-.6889 0 0 -.13515 1346.506 714.917)" gradientUnits="userSpaceOnUse"/></defs><title>Guillaume de Matos</title><g font-family="Object Sans" letter-spacing="0" word-spacing="0"><g style="line-height:1.25;-inkscape-font-specification:'Object Sans Light'" aria-label="404" font-weight="300" font-size="266.776" fill="url(#prefix__d)" stroke-width="1.389"><path style="-inkscape-font-specification:'Object Sans Light'" d="M651.727 504.355h-93.105v-10.937l82.7-130.987h27.212v126.452h23.743v15.472h-23.743v45.62h-16.807zm0-15.472V378.704h-2.134l-69.629 110.179zM802.401 556.644q-23.476 0-41.083-12.539-17.608-12.538-27.212-35.214-9.603-22.943-9.603-52.555 0-30.146 9.603-52.822 9.604-22.676 27.212-35.214 17.607-12.539 41.083-12.539t41.083 12.539q17.608 12.538 27.212 35.481 9.603 22.676 9.603 52.555t-9.603 52.555q-9.604 22.676-27.212 35.214-17.607 12.539-41.083 12.539zm0-15.207q18.408 0 32.28-10.67 13.872-10.672 21.342-29.88 7.47-19.474 7.47-44.551 0-25.344-7.47-44.552-7.47-19.474-21.342-30.145t-32.28-10.671q-18.674 0-32.547 10.67-13.605 10.405-21.075 29.88-7.47 19.207-7.47 44.818 0 25.077 7.47 44.551 7.47 19.208 21.342 29.88 13.872 10.67 32.28 10.67zM1000.828 504.355h-93.105v-10.937l82.7-130.987h27.212v126.452h23.743v15.472h-23.743v45.62h-16.807zm0-15.472V378.704h-2.134l-69.629 110.179z"/></g><g style="line-height:1.25" aria-label="Touch anywhere to go home" font-weight="400" font-size="16.403" fill="url(#prefix__e)" stroke-width=".41" font-style="italic"><path style="-inkscape-font-specification:'Object Sans Italic'" d="M690.136 619.398h-3.838l.23-1.312h9.17l-.23 1.312h-3.839l-1.804 10.252h-1.493zM697.652 629.978q-1.148 0-2.001-.459-.853-.46-1.329-1.28-.459-.82-.459-1.902 0-.377.082-.919.23-1.28.951-2.263.739-1 1.821-1.559 1.083-.557 2.362-.557 1.148 0 2.001.459.87.46 1.329 1.296.476.82.476 1.903 0 .377-.082.902-.23 1.28-.968 2.28-.722.984-1.82 1.542-1.083.557-2.363.557zm.05-1.23q.901 0 1.705-.426.804-.443 1.345-1.198.542-.754.706-1.706.065-.311.065-.672 0-1.116-.689-1.788-.672-.69-1.804-.69-.902 0-1.706.427-.804.427-1.345 1.198-.541.754-.705 1.706-.066.311-.066.672 0 1.116.673 1.805.689.672 1.82.672zM711.571 629.65h-1.361l.213-1.132-.148.05q-.54.672-1.263 1.033-.721.344-1.509.344-1.394 0-2.181-.787-.771-.804-.771-2.1 0-.426.065-.803l.853-4.888h1.362l-.87 4.986q-.065.427-.065.59 0 .82.476 1.297.475.475 1.345.475.721 0 1.377-.328.673-.344 1.132-.935.476-.59.607-1.312l.853-4.773h1.362zM718.025 629.978q-1.099 0-1.935-.459-.837-.46-1.296-1.28-.443-.82-.443-1.886 0-.525.082-.935.213-1.263.935-2.247.722-1 1.788-1.558 1.066-.574 2.28-.574 1.017 0 1.837.41.82.393 1.263 1.115.46.705.46 1.575l-1.313.082q-.065-.886-.705-1.41-.64-.542-1.575-.542-.853 0-1.624.426-.77.427-1.312 1.198-.541.754-.722 1.706-.049.344-.049.656 0 1.132.64 1.82.656.673 1.722.673 1.017 0 1.887-.558.885-.574 1.279-1.46l1.312.28q-.328.869-1.033 1.541-.69.673-1.608 1.05-.902.377-1.87.377zM726.265 617.594h1.362l-.837 4.822.131-.032q.558-.656 1.263-1 .722-.345 1.526-.345 1.378 0 2.165.803.787.804.787 2.116 0 .41-.065.755l-.886 4.937h-1.362l.903-5.02q.049-.294.049-.557 0-.836-.476-1.312-.46-.492-1.329-.492-.721 0-1.394.344-.672.345-1.148.935-.476.59-.59 1.313l-.853 4.79h-1.362zM742.036 629.978q-1.083 0-1.903-.459-.82-.46-1.28-1.28-.442-.836-.442-1.902 0-.394.082-.919.213-1.263.919-2.247.721-1 1.771-1.558 1.05-.574 2.264-.574 1.984 0 2.87 1.722l.18-.05.247-1.344h1.361l-1.476 8.283h-1.362l.246-1.361-.13.049q-1.411 1.64-3.347 1.64zm.213-1.23q.902 0 1.706-.426.804-.443 1.345-1.198.542-.754.706-1.706.065-.311.065-.672 0-1.116-.689-1.788-.672-.69-1.804-.69-.902 0-1.706.427-.804.427-1.345 1.198-.541.754-.705 1.706-.066.311-.066.656 0 1.115.673 1.804.688.689 1.82.689zM750.63 621.367h1.361l-.197 1.132.148-.05q.541-.689 1.263-1.033.722-.361 1.51-.361 1.377 0 2.164.804.788.804.788 2.1 0 .41-.066.787l-.87 4.904h-1.36l.885-4.986q.05-.296.05-.574 0-.837-.476-1.313-.46-.492-1.329-.492-.705 0-1.394.345-.673.344-1.148.935-.46.59-.575 1.296l-.853 4.79h-1.361zM759.3 633.324q-.706 0-1.313-.278l.148-1.165q.508.23 1 .23.509 0 .902-.263.394-.262.673-.656t.672-1.05l.328-.541-2.214-8.234h1.394l1.69 6.479h.147l3.593-6.48h1.476l-4.773 8.465q-.706 1.23-1.165 1.902-.46.673-1.099 1.132-.64.46-1.46.46zM768.373 621.367h1.329l1.083 6.938h.147l3.084-6.938h1.739l.672 6.955h.148l3.494-6.955h1.361l-4.232 8.283h-1.952l-.541-6.709h-.164l-2.92 6.71h-1.935zM783.708 617.594h1.361l-.837 4.822.132-.032q.557-.656 1.263-1 .721-.345 1.525-.345 1.378 0 2.165.803.788.804.788 2.116 0 .41-.066.755l-.886 4.937h-1.361l.902-5.02q.05-.294.05-.557 0-.836-.476-1.312-.46-.492-1.33-.492-.72 0-1.393.344-.673.345-1.149.935-.475.59-.59 1.313l-.853 4.79h-1.361zM795.575 629.978q-1.149 0-2.018-.459-.853-.476-1.329-1.329-.459-.853-.459-1.952 0-.393.082-.935.213-1.23.935-2.198.722-.967 1.804-1.509 1.083-.557 2.33-.557 1.115 0 1.952.459.853.443 1.312 1.263.46.804.46 1.87 0 .36-.083.886-.033.279-.098.492h-7.349q-.066 1.263.623 2 .69.739 1.92.739.95 0 1.804-.443.853-.46 1.378-1.214l1.066.656q-.689 1.067-1.837 1.657-1.148.574-2.493.574zm3.69-5.265q.033-1.115-.64-1.772-.672-.672-1.82-.672-1.165 0-2.116.705-.952.706-1.329 1.837zM803.395 621.367h1.329l-.214 1.115.148-.033q.377-.557 1.033-.902.673-.344 1.345-.344.296 0 .558.082.279.065.443.164l-.131 1.214q-.525-.23-1.132-.23-.968 0-1.722.787-.755.788-.968 2.018l-.787 4.412h-1.362zM812.138 629.978q-1.149 0-2.018-.459-.853-.476-1.328-1.329-.46-.853-.46-1.952 0-.393.082-.935.213-1.23.935-2.198.722-.967 1.805-1.509 1.082-.557 2.329-.557 1.115 0 1.952.459.853.443 1.312 1.263.46.804.46 1.87 0 .36-.083.886-.033.279-.098.492h-7.349q-.065 1.263.624 2 .688.739 1.919.739.951 0 1.804-.443.853-.46 1.378-1.214l1.066.656q-.689 1.067-1.837 1.657-1.148.574-2.493.574zm3.69-5.265q.033-1.115-.64-1.772-.672-.672-1.82-.672-1.165 0-2.116.705-.951.706-1.329 1.837zM825.634 629.962q-.935 0-1.46-.525-.525-.525-.525-1.427 0-.279.049-.541l.902-5.02h-1.345l.18-1.082h1.346l.77-2.674h1.083l-.492 2.674h2.116l-.18 1.082h-2.116l-.903 5.052q-.032.23-.032.345 0 .443.262.705.263.263.722.263.525 0 1.066-.164l-.131 1.115q-.28.098-.656.148-.361.049-.656.049zM832.688 629.978q-1.148 0-2-.459-.854-.46-1.33-1.28-.459-.82-.459-1.902 0-.377.082-.919.23-1.28.952-2.263.738-1 1.82-1.559 1.083-.557 2.362-.557 1.149 0 2.002.459.869.46 1.328 1.296.476.82.476 1.903 0 .377-.082.902-.23 1.28-.968 2.28-.722.984-1.82 1.542-1.083.557-2.363.557zm.05-1.23q.902 0 1.705-.426.804-.443 1.345-1.198.542-.754.706-1.706.065-.311.065-.672 0-1.116-.688-1.788-.673-.69-1.805-.69-.902 0-1.706.427-.803.427-1.345 1.198-.541.754-.705 1.706-.066.311-.066.672 0 1.116.673 1.805.689.672 1.82.672zM846.69 633.75q-1.624 0-2.641-.754t-1.198-2.05l1.395-.41q.164.968.82 1.476.656.509 1.722.509 1.394 0 2.378-.837.985-.836 1.247-2.23l.18-1.067-.147.033q-1.394 1.443-3.215 1.443-1.1 0-1.936-.442-.836-.46-1.296-1.263-.442-.804-.442-1.854 0-.36.082-.886.213-1.246.935-2.23.721-1.001 1.771-1.559 1.05-.574 2.264-.574 1 0 1.706.41.705.394 1.131 1.116l.197-.033.213-1.181h1.346l-1.444 8.185q-.23 1.28-.935 2.214-.689.952-1.771 1.46-1.067.525-2.362.525zm.721-5.084q.902 0 1.706-.41.804-.427 1.345-1.165.542-.754.69-1.673.065-.311.065-.672 0-1.116-.69-1.788-.672-.69-1.803-.69-.903 0-1.706.427-.804.427-1.345 1.198-.542.754-.706 1.706-.065.426-.065.64 0 1.082.689 1.755.688.672 1.82.672zM858.254 629.978q-1.148 0-2.001-.459-.853-.46-1.329-1.28-.46-.82-.46-1.902 0-.377.083-.919.23-1.28.951-2.263.738-1 1.82-1.559 1.084-.557 2.363-.557 1.148 0 2.001.459.87.46 1.329 1.296.475.82.475 1.903 0 .377-.082.902-.23 1.28-.967 2.28-.722.984-1.821 1.542-1.083.557-2.362.557zm.05-1.23q.901 0 1.705-.426.804-.443 1.345-1.198.541-.754.705-1.706.066-.311.066-.672 0-1.116-.689-1.788-.672-.69-1.804-.69-.902 0-1.706.427-.804.427-1.345 1.198-.542.754-.706 1.706-.065.311-.065.672 0 1.116.672 1.805.69.672 1.821.672zM871.008 617.594h1.362l-.837 4.822.132-.032q.557-.656 1.263-1 .721-.345 1.525-.345 1.378 0 2.165.803.788.804.788 2.116 0 .41-.066.755l-.886 4.937h-1.361l.902-5.02q.05-.294.05-.557 0-.836-.476-1.312-.46-.492-1.33-.492-.72 0-1.393.344-.673.345-1.149.935-.475.59-.59 1.313l-.853 4.79h-1.361zM882.826 629.978q-1.148 0-2-.459-.854-.46-1.33-1.28-.459-.82-.459-1.902 0-.377.082-.919.23-1.28.952-2.263.738-1 1.82-1.559 1.083-.557 2.362-.557 1.149 0 2.002.459.869.46 1.328 1.296.476.82.476 1.903 0 .377-.082.902-.23 1.28-.968 2.28-.722.984-1.82 1.542-1.083.557-2.363.557zm.05-1.23q.902 0 1.705-.426.804-.443 1.345-1.198.542-.754.706-1.706.065-.311.065-.672 0-1.116-.688-1.788-.673-.69-1.805-.69-.902 0-1.706.427-.803.427-1.345 1.198-.541.754-.705 1.706-.066.311-.066.672 0 1.116.673 1.805.689.672 1.82.672zM890.824 621.367h1.312l-.197 1.099.132-.05q.475-.656 1.148-1.016.689-.361 1.476-.361.87 0 1.542.459.673.46.902 1.197l.18-.098q.542-.738 1.313-1.132.77-.41 1.673-.41 1.296 0 2.067.82.77.804.77 2.1 0 .41-.065.787l-.87 4.888h-1.36l.885-5.003q.05-.295.05-.541 0-.837-.46-1.329-.46-.508-1.23-.508-1.017 0-1.821.705-.787.706-.968 1.772l-.87 4.904h-1.36l.885-5.003q.05-.328.05-.59 0-.837-.443-1.312-.427-.476-1.214-.476-1.05 0-1.821.689-.771.689-.951 1.788l-.87 4.904h-1.361zM908.633 629.978q-1.148 0-2.017-.459-.853-.476-1.329-1.329-.46-.853-.46-1.952 0-.393.083-.935.213-1.23.935-2.198.722-.967 1.804-1.509 1.083-.557 2.33-.557 1.115 0 1.951.459.853.443 1.313 1.263.459.804.459 1.87 0 .36-.082.886-.033.279-.099.492h-7.348q-.066 1.263.623 2 .69.739 1.92.739.95 0 1.804-.443.853-.46 1.378-1.214l1.066.656q-.69 1.067-1.837 1.657-1.149.574-2.494.574zm3.691-5.265q.033-1.115-.64-1.772-.672-.672-1.82-.672-1.165 0-2.116.705-.952.706-1.33 1.837z"/></g></g></svg>