<svg xmlns="http://www.w3.org/2000/svg" width="1600" height="1200"><title>Guillaume de Matos</title><g aria-label="Guillaume de Matos" style="line-height:1.25" font-weight="400" font-size="215.187" font-family="Object Sans" letter-spacing="0" word-spacing="0" stroke-width="5.38" text-anchor="middle" fill="#fff"><path d="M580.63 462.87q-11.832 0-21.277-5.211-9.336-5.32-14.655-14.655-5.32-9.445-5.32-21.17 0-11.723 5.32-21.06 5.32-9.335 14.655-14.546 9.445-5.32 21.278-5.32 7.924 0 15.09 2.932 7.272 2.822 12.483 7.924 5.211 4.994 7.274 11.29l-9.01 3.04q-2.498-7.165-9.77-11.833-7.166-4.668-16.067-4.668-9.12 0-16.284 4.125-7.056 4.126-11.073 11.508-4.017 7.273-4.017 16.609 0 9.227 4.017 16.61 4.017 7.381 11.182 11.615 7.164 4.125 16.175 4.125 8.141 0 14.872-3.582 6.84-3.583 10.856-9.77 4.016-6.297 4.233-13.896l-37.995-.109v-8.793h47.983q.108 1.194.108 3.474 0 11.941-5.102 21.386-4.994 9.444-14.112 14.764-9.12 5.21-20.843 5.21zM683.496 460.156h-9.01v-7.49H673.4q-2.823 4.45-7.382 6.947-4.45 2.497-9.77 2.497-6.84 0-12.05-3.04-5.21-3.148-8.033-8.576-2.714-5.536-2.714-12.484v-32.676h9.01v32.676q0 7.165 3.908 11.616 4.017 4.342 10.964 4.342 4.56 0 8.468-2.171 4.016-2.171 6.296-5.971 2.388-3.908 2.388-8.576v-31.916h9.01zM705.692 394.913q-2.822 0-4.668-1.846-1.845-1.845-1.845-4.668 0-2.714 1.845-4.45 1.846-1.846 4.668-1.846 2.823 0 4.56 1.737 1.845 1.737 1.845 4.56 0 2.822-1.845 4.667-1.737 1.846-4.56 1.846zm-4.56 10.421h9.011v54.822h-9.01zM727.828 380.366h9.01v79.79h-9.01zM753.483 380.366h9.01v79.79h-9.01zM794.445 461.893q-8.902 0-14.33-4.234-5.319-4.342-5.319-11.399 0-7.382 6.296-12.375 6.297-4.994 18.238-6.297l15.198-1.845v-2.171q0-5.537-3.8-8.793-3.799-3.366-10.53-3.366-6.296 0-9.987 2.931-3.69 2.823-3.582 7.925h-9.12q0-8.685 6.189-13.787 6.187-5.21 16.609-5.21 10.639 0 16.935 5.644 6.296 5.537 6.296 14.873v36.367h-9.01v-8.034h-.977q-6.08 9.77-19.106 9.77zm1.303-7.49q5.536 0 9.77-2.064 4.234-2.062 6.622-5.753 2.388-3.691 2.388-8.25v-4.886l-15.198 1.737q-8.033.977-11.833 3.908-3.69 2.823-3.69 6.948 0 3.908 3.147 6.188 3.257 2.171 8.794 2.171zM888.101 460.156h-9.01v-7.49h-1.086q-2.822 4.45-7.382 6.947-4.45 2.497-9.77 2.497-6.839 0-12.05-3.04-5.21-3.148-8.033-8.576-2.714-5.536-2.714-12.484v-32.676h9.01v32.676q0 7.165 3.909 11.616 4.016 4.342 10.964 4.342 4.56 0 8.467-2.171 4.017-2.171 6.297-5.971 2.388-3.908 2.388-8.576v-31.916h9.01zM904.87 405.334h8.685v7.273h1.085q2.388-4.342 6.514-6.839 4.233-2.605 9.444-2.605 5.754 0 10.639 2.931t7.273 7.708h.977q2.931-4.994 7.6-7.708 4.667-2.823 10.746-2.823 6.405 0 11.399 3.149 5.102 3.04 7.925 8.576 2.822 5.428 2.822 12.484v32.676h-9.01V427.37q0-6.947-4.017-11.507-4.016-4.56-10.204-4.56-6.622 0-10.856 4.56-4.125 4.451-4.125 11.507v32.785h-9.01V427.37q0-7.273-3.909-11.615-3.799-4.451-10.204-4.451-6.622 0-10.747 4.45-4.017 4.343-4.017 11.616v32.785h-9.01zM1032.288 462.327q-8.468 0-15.198-3.908t-10.53-10.747q-3.8-6.948-3.8-15.633 0-8.25 3.691-14.764 3.8-6.622 10.422-10.313 6.622-3.8 14.98-3.8 8.25 0 14.764 3.8 6.622 3.691 10.313 10.313 3.691 6.514 3.691 14.873 0 2.388-.108 3.582h-48.526q.977 8.36 6.514 13.461 5.645 4.994 14.004 4.994 6.08 0 11.073-2.823 5.102-2.93 7.707-7.816l7.49 3.8q-3.365 7.056-10.42 11.073-6.948 3.908-16.067 3.908zm18.889-34.522q-1.194-7.49-6.622-11.94-5.32-4.56-13.136-4.56-7.599 0-12.918 4.56-5.21 4.559-6.405 11.94zM583.402 585.146q-7.924 0-14.438-3.8-6.513-3.907-10.313-10.638-3.69-6.73-3.69-15.198 0-8.467 3.69-15.198 3.691-6.73 10.205-10.53 6.513-3.8 14.438-3.8 6.622 0 11.832 2.714 5.211 2.606 8.25 7.6h1.086v-33.11h9.01v79.79h-9.01v-8.468h-1.085q-3.04 5.102-8.25 7.924-5.103 2.714-11.725 2.714zm.977-8.141q5.754 0 10.313-2.823 4.668-2.822 7.274-7.708 2.714-4.993 2.714-10.964 0-5.97-2.606-10.856-2.605-4.885-7.273-7.707-4.668-2.823-10.422-2.823-5.862 0-10.53 2.823-4.56 2.822-7.273 7.707-2.606 4.885-2.606 10.856 0 6.08 2.606 10.964 2.714 4.886 7.382 7.708 4.668 2.823 10.421 2.823zM656.789 585.146q-8.468 0-15.198-3.908t-10.53-10.747q-3.8-6.948-3.8-15.632 0-8.25 3.691-14.764 3.8-6.622 10.422-10.313 6.622-3.8 14.98-3.8 8.251 0 14.764 3.8 6.622 3.69 10.313 10.313 3.691 6.513 3.691 14.872 0 2.389-.108 3.583h-48.525q.977 8.359 6.513 13.46 5.645 4.995 14.004 4.995 6.08 0 11.073-2.823 5.102-2.931 7.707-7.816l7.49 3.8q-3.364 7.056-10.42 11.072-6.948 3.908-16.067 3.908zm18.889-34.521q-1.194-7.49-6.622-11.941-5.32-4.56-13.136-4.56-7.599 0-12.918 4.56-5.21 4.56-6.405 11.941zM727.977 506.442h15.632l25.294 62.746h.977l25.403-62.746h15.524v76.533h-9.88v-64.049h-.976l-25.837 64.05h-9.444l-25.729-63.941h-.977v63.94h-9.987zM844.907 584.712q-8.902 0-14.33-4.234-5.319-4.342-5.319-11.398 0-7.382 6.297-12.376 6.296-4.993 18.237-6.296l15.198-1.846v-2.17q0-5.537-3.8-8.794-3.799-3.365-10.53-3.365-6.296 0-9.987 2.93-3.69 2.823-3.582 7.926h-9.119q0-8.685 6.188-13.787 6.188-5.211 16.61-5.211 10.638 0 16.934 5.645 6.297 5.536 6.297 14.872v36.367h-9.01v-8.033h-.978q-6.079 9.77-19.106 9.77zm1.303-7.49q5.536 0 9.77-2.063t6.622-5.754q2.388-3.69 2.388-8.25v-4.885l-15.198 1.737q-8.033.977-11.832 3.908-3.691 2.823-3.691 6.948 0 3.908 3.148 6.187 3.256 2.172 8.793 2.172zM909.47 585.038q-6.839 0-10.964-4.451-4.125-4.45-4.125-11.724v-33.545h-8.902v-7.164h8.902l2.062-17.695h7.056l-.108 17.695h14.112v7.164h-14.112v33.219q0 3.908 2.28 6.405 2.28 2.497 6.187 2.497 1.303 0 3.149-.326 1.845-.326 3.365-.76v7.274q-4.234 1.41-8.902 1.41zM956.377 585.146q-8.576 0-15.306-3.8-6.622-3.799-10.422-10.53-3.691-6.73-3.691-15.306 0-8.576 3.691-15.198 3.8-6.73 10.422-10.53 6.73-3.8 15.306-3.8 8.468 0 15.198 3.8t10.422 10.53q3.8 6.73 3.8 15.198 0 8.576-3.8 15.307-3.691 6.73-10.422 10.53-6.73 3.8-15.198 3.8zm0-8.141q5.862 0 10.53-2.714 4.668-2.823 7.274-7.708 2.605-4.885 2.605-11.073 0-6.08-2.605-10.964-2.606-4.885-7.274-7.6-4.668-2.822-10.53-2.822-5.862 0-10.53 2.823-4.668 2.714-7.273 7.599-2.606 4.885-2.606 10.964 0 6.188 2.606 11.073 2.605 4.885 7.273 7.708 4.668 2.714 10.53 2.714zM1022.117 585.146q-11.833 0-18.346-5.428-6.513-5.536-6.513-15.306h8.684q.109 5.97 4.451 9.553 4.45 3.582 12.05 3.582 6.188 0 9.879-2.388 3.69-2.497 3.69-6.84 0-3.364-2.062-4.993-2.063-1.737-4.885-2.388-2.823-.651-8.793-1.411-9.879-1.194-15.958-4.56-6.08-3.474-6.08-11.832 0-7.925 5.971-12.485 6.08-4.668 16.067-4.668 10.313 0 16.609 5.103 6.405 4.993 6.405 13.46h-8.793q-.109-4.993-4.017-7.924-3.908-3.04-10.313-3.04-5.97 0-9.661 2.497t-3.691 6.73q0 3.15 1.954 4.886 2.062 1.628 4.885 2.28 2.93.542 8.684 1.194 6.405.76 11.073 2.388 4.777 1.52 7.925 5.102 3.148 3.474 3.148 9.553 0 8.034-5.97 12.484-5.863 4.451-16.393 4.451z" style="-inkscape-font-specification:'Object Sans';text-align:center"/></g></svg>